<svg id="visual" viewBox="0 0 900 600" width="900" height="600" xmlns="http://www.w3.org/2000/svg" xmlns:xlink="http://www.w3.org/1999/xlink" version="1.1"><rect x="0" y="0" width="900" height="600" fill="#dbc2cc"></rect><g transform="translate(-9.683522249996102 -9.35731642210952)"><path d="M121.9 -184.6C162.4 -163.7 202.6 -137.3 231.8 -98.5C260.9 -59.7 278.9 -8.5 258.6 27.4C238.3 63.4 179.6 84.1 143.2 121.6C106.8 159.1 92.7 213.4 63.2 227.9C33.6 242.4 -11.4 217.2 -61.6 204.7C-111.9 192.3 -167.4 192.8 -196.6 166.3C-225.8 139.9 -228.7 86.6 -236.9 33.7C-245.1 -19.2 -258.5 -71.7 -233.4 -98.3C-208.4 -124.9 -144.7 -125.5 -99.4 -144.2C-54.1 -162.8 -27 -199.4 6.8 -210.1C40.7 -220.7 81.5 -205.4 121.9 -184.6" fill="#BB004B"></path></g></svg>